<svg xmlns="http://www.w3.org/2000/svg" width="64" height="64" viewBox="0 0 64 64">
  <g id="Grupo_1101850" data-name="Grupo 1101850" transform="translate(-736 -3649)">
    <path id="Trazado_879413" data-name="Trazado 879413" d="M32,0A32,32,0,1,1,0,32,32,32,0,0,1,32,0Z" transform="translate(736 3649)" fill="#f0c518"/>
    <g id="_83-Computer" data-name="83-Computer" transform="translate(716.111 3616.837)">
      <circle id="Elipse_11824" data-name="Elipse 11824" cx="0.916" cy="0.916" r="0.916" transform="translate(51.972 74.757)" fill="#12263f"/>
      <path id="Trazado_888193" data-name="Trazado 888193" d="M71.67,46.815H34.107A2.11,2.11,0,0,0,32,48.922V77.178a2.11,2.11,0,0,0,2.107,2.107H47.48v2.736a2.027,2.027,0,0,1-2.025,2.025h-3.91a.916.916,0,1,0,0,1.832H64.232a.916.916,0,1,0,0-1.832h-3.91A2.027,2.027,0,0,1,58.3,82.021V79.285H71.67a2.11,2.11,0,0,0,2.107-2.107V48.922a2.11,2.11,0,0,0-2.107-2.107ZM34.107,48.647H71.67a.275.275,0,0,1,.275.275V72.054H33.832V48.922A.275.275,0,0,1,34.107,48.647Zm22.934,35.4h-8.3a3.833,3.833,0,0,0,.576-2.025V79.285h7.152v2.736a3.833,3.833,0,0,0,.576,2.025ZM71.67,77.453H34.107a.275.275,0,0,1-.275-.275V73.886H71.945v3.292A.275.275,0,0,1,71.67,77.453Z" fill="#12263f"/>
      <path id="Trazado_888194" data-name="Trazado 888194" d="M161.477,127.142a.918.918,0,0,0,1.3,0l11.2-11.2a.916.916,0,0,0,0-1.3l-2.405-2.405a.916.916,0,0,0-1.3,0l-8.145,8.145-3.157-3.157a.916.916,0,0,0-1.3,0l-2.4,2.405a.916.916,0,0,0,0,1.3Zm-3.156-7.966,3.157,3.157a.916.916,0,0,0,1.3,0l8.145-8.145,1.109,1.109-9.9,9.9-4.914-4.914Z" transform="translate(-111.731 -59.191)" fill="#12263f"/>
    </g>
  </g>
</svg>
