<svg xmlns="http://www.w3.org/2000/svg" width="64" height="64" viewBox="0 0 64 64">
  <g id="Grupo_1101851" data-name="Grupo 1101851" transform="translate(-1166 -3649)">
    <g id="Grupo_1073003" data-name="Grupo 1073003" transform="translate(430)">
      <circle id="Elipse_9673" data-name="Elipse 9673" cx="32" cy="32" r="32" transform="translate(736 3649)" fill="#f0c518"/>
    </g>
    <g id="monitor_892945" transform="translate(1178.277 3662.277)">
      <g id="Grupo_1104174" data-name="Grupo 1104174">
        <g id="Grupo_1104173" data-name="Grupo 1104173">
          <path id="Trazado_888195" data-name="Trazado 888195" d="M36.264,8.907H34.356V0H5.09V8.907H3.181A3.185,3.185,0,0,0,0,12.088V32.447a3.185,3.185,0,0,0,3.181,3.181h8.907v2.545H9.543v1.272H29.9V38.173H27.357V35.628h8.907a3.185,3.185,0,0,0,3.181-3.181V12.088A3.185,3.185,0,0,0,36.264,8.907ZM6.362,1.272H33.083V14H20.867a6.972,6.972,0,0,0-1.034-7.848l1.7-2.622-1.069-.691L18.885,5.27a6.992,6.992,0,1,0-6.108,12.29,1.65,1.65,0,0,0,.868,1.108l3.382,1.691H33.083v6.362H6.362Zm27.357,14a1.909,1.909,0,0,1,0,3.817H31.811V15.269Zm-20.074.419a1.666,1.666,0,0,0-.669.609,5.725,5.725,0,1,1,5.218-9.957l-4.361,6.739-2-1.5L11.07,12.6l3.09,2.318,4.953-7.654A5.7,5.7,0,0,1,19.39,14H17.028Zm2.9-.025v3.031L14.215,17.53a.393.393,0,0,1,0-.7Zm1.272,2.152H30.538v1.272H17.814Zm0-1.272V15.269H30.538v1.272Zm8.271,21.631H13.361V35.628H26.085Zm12.088-7.635H36.9v1.272h1.272v.636a1.911,1.911,0,0,1-1.909,1.909H3.181a1.911,1.911,0,0,1-1.909-1.909v-.636H35.628V30.538H1.272V12.088a1.911,1.911,0,0,1,1.909-1.909H5.09V27.993H34.356v-7.7a3.181,3.181,0,0,0,0-6.234V10.179h1.909a1.911,1.911,0,0,1,1.909,1.909Z"/>
        </g>
      </g>
      <g id="Grupo_1104176" data-name="Grupo 1104176" transform="translate(8.271 21.631)">
        <g id="Grupo_1104175" data-name="Grupo 1104175">
          <path id="Trazado_888196" data-name="Trazado 888196" d="M105.909,272a1.909,1.909,0,1,0,1.909,1.909A1.911,1.911,0,0,0,105.909,272Zm0,2.545a.636.636,0,1,1,.636-.636A.636.636,0,0,1,105.909,274.545Z" transform="translate(-104 -272)"/>
        </g>
      </g>
      <g id="Grupo_1104178" data-name="Grupo 1104178" transform="translate(14.633 21.631)">
        <g id="Grupo_1104177" data-name="Grupo 1104177">
          <path id="Trazado_888197" data-name="Trazado 888197" d="M185.909,272a1.909,1.909,0,1,0,1.909,1.909A1.911,1.911,0,0,0,185.909,272Zm0,2.545a.636.636,0,1,1,.636-.636A.636.636,0,0,1,185.909,274.545Z" transform="translate(-184 -272)"/>
        </g>
      </g>
      <g id="Grupo_1104180" data-name="Grupo 1104180" transform="translate(20.995 21.631)">
        <g id="Grupo_1104179" data-name="Grupo 1104179">
          <path id="Trazado_888198" data-name="Trazado 888198" d="M265.909,272a1.909,1.909,0,1,0,1.909,1.909A1.911,1.911,0,0,0,265.909,272Zm0,2.545a.636.636,0,1,1,.636-.636A.636.636,0,0,1,265.909,274.545Z" transform="translate(-264 -272)"/>
        </g>
      </g>
      <g id="Grupo_1104182" data-name="Grupo 1104182" transform="translate(27.357 21.631)">
        <g id="Grupo_1104181" data-name="Grupo 1104181">
          <path id="Trazado_888199" data-name="Trazado 888199" d="M345.909,272a1.909,1.909,0,1,0,1.909,1.909A1.911,1.911,0,0,0,345.909,272Zm0,2.545a.636.636,0,1,1,.636-.636A.636.636,0,0,1,345.909,274.545Z" transform="translate(-344 -272)"/>
        </g>
      </g>
    </g>
  </g>
</svg>
