<svg xmlns="http://www.w3.org/2000/svg" width="64" height="64" viewBox="0 0 64 64">
  <g id="Grupo_1104589" data-name="Grupo 1104589" transform="translate(-1233 -6365.001)">
    <path id="Trazado_888200" data-name="Trazado 888200" d="M32,0A32,32,0,1,1,0,32,32,32,0,0,1,32,0Z" transform="translate(1233 6365.001)" fill="#f0c518"/>
    <g id="speedometer_8465003" transform="translate(1244.462 6376.462)">
      <g id="Grupo_1104183" data-name="Grupo 1104183" transform="translate(0)">
        <path id="Trazado_888200-2" data-name="Trazado 888200" d="M38.67,5.776H32.478a15.245,15.245,0,0,0-23.9,0H2.407A2.41,2.41,0,0,0,0,8.183V32.252a2.41,2.41,0,0,0,2.407,2.407H16.4l-1.29,4.814H14.12a.8.8,0,1,0,0,1.6H26.957a.8.8,0,1,0,0-1.6h-.989l-1.29-4.814H38.67a2.41,2.41,0,0,0,2.407-2.407V8.183A2.41,2.41,0,0,0,38.67,5.776ZM25.464,11.453l5.265-5.265a13.628,13.628,0,0,1,0,18.116l-5.267-5.267a6.214,6.214,0,0,0,0-7.584Zm4.13-6.4-5.265,5.265a6.187,6.187,0,0,0-2.988-1.241V5.729a.8.8,0,0,0-1.6,0V9.077a6.188,6.188,0,0,0-2.989,1.241L11.474,5.044a13.638,13.638,0,0,1,18.12.009Zm-9.056,9.187a1,1,0,1,1-1,1A1,1,0,0,1,20.539,14.241ZM2.407,7.381H7.471a15.222,15.222,0,0,0-1.7,4.082.8.8,0,1,0,1.555.4,13.587,13.587,0,0,1,3.016-5.681l5.274,5.274a6.214,6.214,0,0,0,0,7.584L10.344,24.3a13.649,13.649,0,0,1-3.018-5.677.8.8,0,1,0-1.554.4,15.255,15.255,0,0,0,3.988,7,.8.8,0,0,0,1.135,0l6.382-6.382a.8.8,0,0,0,0-1.135,4.613,4.613,0,0,1,2.46-7.805v2.062a2.607,2.607,0,1,0,1.6,0V10.7a4.613,4.613,0,0,1,2.46,7.805.8.8,0,0,0,0,1.135l6.382,6.382a.8.8,0,0,0,1.135,0A15.233,15.233,0,0,0,33.593,7.381H38.67a.8.8,0,0,1,.8.8V29.845H1.6V8.183a.8.8,0,0,1,.8-.8Zm21.9,32.092H16.77l1.29-4.814h4.956ZM38.67,33.054H2.407a.8.8,0,0,1-.8-.8v-.8H39.472v.8A.8.8,0,0,1,38.67,33.054Z" transform="translate(0)" fill="#12263f"/>
        <path id="Trazado_888201" data-name="Trazado 888201" d="M224.3,283.6h3.61a.8.8,0,1,0,0-1.6H224.3a.8.8,0,1,0,0,1.6Z" transform="translate(-205.57 -259.374)" fill="#12263f"/>
        <path id="Trazado_888202" data-name="Trazado 888202" d="M215.3,323.6h5.054a.8.8,0,1,0,0-1.6H215.3a.8.8,0,1,0,0,1.6Z" transform="translate(-197.292 -296.165)" fill="#12263f"/>
        <path id="Trazado_888203" data-name="Trazado 888203" d="M66.8,181.6a.8.8,0,1,0,0-1.6h0a.8.8,0,0,0,0,1.6Z" transform="translate(-60.703 -165.559)" fill="#12263f"/>
      </g>
    </g>
  </g>
</svg>
